<svg width="1440" height="569" viewBox="0 0 1440 569" fill="none" xmlns="http://www.w3.org/2000/svg">
<path d="M1440 630.414V185.269C1440 185.269 1214 198.269 1017.5 159.269C821 120.269 634 50.769 420 23.269C206 -4.23096 0 0.769043 0 0.769043V630.414H1440Z" fill="url(#paint0_linear_6001_2)"/>
<path d="M1440 634.414V189.269C1440 189.269 1214 202.269 1017.5 163.269C821 124.269 634 54.769 420 27.269C206 -0.230957 0 4.76904 0 4.76904V634.414H1440Z" fill="url(#paint1_linear_6001_2)"/>
<mask id="mask0_6001_2" style="mask-type:luminance" maskUnits="userSpaceOnUse" x="0" y="4" width="1440" height="631">
<path d="M1440 634.414V189.269C1440 189.269 1214 202.269 1017.5 163.269C821 124.269 634 54.769 420 27.269C206 -0.230957 0 4.76904 0 4.76904V634.414H1440Z" fill="white"/>
</mask>
<g mask="url(#mask0_6001_2)">
<circle opacity="0.05" cx="262" cy="262" r="262" transform="matrix(1 0 0 -1 1060 369.269)" fill="white"/>
<circle opacity="0.02" cx="262" cy="262" r="262" transform="matrix(1 0 0 -1 -6 1036.27)" fill="white"/>
</g>
<defs>
<linearGradient id="paint0_linear_6001_2" x1="-644.712" y1="220.855" x2="-118.041" y2="-848.398" gradientUnits="userSpaceOnUse">
<stop stop-color="#52B4DA"/>
<stop offset="1" stop-color="#377999"/>
</linearGradient>
<linearGradient id="paint1_linear_6001_2" x1="-644.712" y1="224.855" x2="-118.041" y2="-844.398" gradientUnits="userSpaceOnUse">
<stop stop-color="#336DA6"/>
<stop offset="1" stop-color="#1E3E85"/>
</linearGradient>
</defs>
</svg>
